:SAMPLES-PER-SECOND 30
:FULLY-SPECIFIED
:DEGREES
237
root  69.0063 39.8413 -1.39342 -86.9515 -83.517 85.1461
RightUpLeg  -5.56182 -14.1693 -20.3083
RightLeg  8.4564 2.39552 0.23187
RightFoot  2.9203 -1.17793 9.55504
RightToes  -1.16417e-010 0 -3.6325e-017
Spine  13.1579 -1.00075 -1.79912
Spine1  10.3131 -0.331322 -3.56735
HEad  -15.214 3.85964 -3.49672
LeftShoulder1  10.273 -14.9654 -48.5607
LeftArm  -8.98942 -4.77313 -20.7955
LeftForeArm  19.1722 -23.1883 -4.01833
LeftHand  -0.244104 0.0205437 5.32207
RightShoulder  6.95179 11.7788 39.3793
RightArm  -7.7339 -1.26367 35.2683
RightForeArm  -12.0893 30.2912 7.23203
RightHand  -4.68521 12.1738 -30.5719
LeftUpLeg  -2.98099 3.35823 -4.34472
LeftLeg  6.09636 20.3833 -4.54104
LeftFoot  -2.21812 -0.111838 1.56978
LeftToes  -2.09216e-011 1.96776e-011 -5.83545e-012
238
root  69.1447 39.8582 -1.41779 -84.395 -83.6721 82.6133
RightUpLeg  -5.36024 -14.4581 -20.1903
RightLeg  7.81884 2.33745 0.442142
RightFoot  3.40947 -1.21583 9.55304
RightToes  -1.16417e-010 0 -3.6325e-017
Spine  13.849 -1.1955 -1.66901
Spine1  9.25523 -0.663633 -3.14995
HEad  -15.5146 4.53041 -3.84021
LeftShoulder1  10.0612 -15.0491 -47.33
LeftArm  -12.223 -10.5326 -20.7141
LeftForeArm  21.6902 -29.0021 -5.07622
LeftHand  -0.244104 0.0205437 5.32207
RightShoulder  7.01468 11.9827 39.1945
RightArm  -7.71375 3.18955 35.2414
RightForeArm  -8.98832 37.4117 9.1004
RightHand  -4.7899 12.1755 -31.2145
LeftUpLeg  -3.33362 3.32987 -4.17123
LeftLeg  6.24623 20.1572 -4.45638
LeftFoot  -1.97189 -0.128998 1.71987
LeftToes  -2.09216e-011 1.96776e-011 -5.83545e-012
239
root  69.2652 39.8722 -1.43191 -82.9917 -83.8256 81.1463
RightUpLeg  -5.11885 -14.6219 -20.0948
RightLeg  7.25367 2.3127 0.649257
RightFoot  3.83102 -1.23933 9.48289
RightToes  -1.16417e-010 0 -3.6325e-017
Spine  14.5674 -1.24319 -1.4705
Spine1  8.27712 -0.787033 -2.87311
HEad  -16.148 4.88405 -3.96444
LeftShoulder1  9.98102 -15.301 -46.2991
LeftArm  -14.2467 -16.0577 -20.3124
LeftForeArm  27.288 -34.4862 -6.11133
LeftHand  -0.244104 0.0205437 5.32207
RightShoulder  7.04806 12.0788 39.1324
RightArm  -7.90019 7.67576 34.7605
RightForeArm  -5.56547 44.5107 11.3834
RightHand  -4.66017 11.6589 -31.2831
LeftUpLeg  -3.53535 3.29039 -4.03315
LeftLeg  6.35627 20.0772 -4.32656
LeftFoot  -1.80591 -0.137848 1.78355
LeftToes  -2.09216e-011 1.96776e-011 -5.83545e-012
240
root  69.3618 39.8829 -1.4457 -83.1993 -83.9722 81.2424
RightUpLeg  -4.91017 -14.6707 -19.9874
RightLeg  6.77101 2.32821 0.813648
RightFoot  4.22529 -1.25216 9.35381
RightToes  -1.16417e-010 0 -3.6325e-017
Spine  14.965 -1.08531 -1.31836
Spine1  7.87075 -0.681181 -2.5869
HEad  -17.3552 5.09842 -3.97645
LeftShoulder1  10.0033 -15.6298 -45.5797
LeftArm  -16.2473 -21.3021 -19.7182
LeftForeArm  33.5793 -40.043 -7.26673
LeftHand  -0.244104 0.0205437 5.32207
RightShoulder  6.95759 12.0331 38.7023
RightArm  -8.53433 12.375 34.3031
RightForeArm  -2.04998 51.456 14.3318
RightHand  -4.57565 11.3107 -31.3514
LeftUpLeg  -3.58142 3.37318 -3.85427
LeftLeg  6.37951 20.0356 -4.32823
LeftFoot  -1.6874 -0.142903 1.81455
LeftToes  -2.09216e-011 1.96776e-011 -5.83545e-012
241
root  69.4383 39.8888 -1.46597 -83.3421 -84.189 81.3367
RightUpLeg  -4.78228 -14.6055 -19.7631
RightLeg  6.3582 2.19356 0.932964
RightFoot  4.57884 -1.26609 9.26043
RightToes  -1.16417e-010 0 -3.6325e-017
Spine  15.241 -0.958376 -1.2772
Spine1  7.59959 -0.64442 -2.1962
HEad  -18.9571 5.75007 -4.06387
LeftShoulder1  9.90609 -15.7166 -44.9061
LeftArm  -18.6208 -25.6221 -19.0158
LeftForeArm  38.0032 -46.6953 -9.18007
LeftHand  -0.244104 0.0205437 5.32207
RightShoulder  6.68544 11.8257 37.577
RightArm  -9.18379 17.3614 34.4511
RightForeArm  2.17259 58.3517 18.4529
RightHand  -4.73691 11.508 -32.0322
LeftUpLeg  -3.74767 3.58455 -3.54777
LeftLeg  6.59376 19.8658 -4.35255
LeftFoot  -1.62574 -0.148755 1.87091
LeftToes  -2.09216e-011 1.96776e-011 -5.83545e-012
242
root  69.4992 39.8902 -1.49174 -81.8772 -84.4982 79.9139
RightUpLeg  -4.67854 -14.4647 -19.426
RightLeg  5.97718 1.83937 1.04659
RightFoot  4.83633 -1.28589 9.26273
RightToes  -1.16417e-010 0 -3.6325e-017
Spine  15.6702 -1.00683 -1.17083
Spine1  6.95695 -0.749719 -1.96842
HEad  -20.5125 6.87869 -4.02871
LeftShoulder1  9.61945 -15.5576 -43.9255
LeftArm  -21.0579 -28.8227 -18.2969
LeftForeArm  40.7375 -54.4239 -12.3482
LeftHand  -0.244104 0.0205437 5.32207
RightShoulder  6.28693 11.4845 35.9596
RightArm  -9.68224 22.5844 35.0259
RightForeArm  8.60055 64.9433 24.4148
RightHand  -4.82872 11.5108 -32.6162
LeftUpLeg  -4.18395 3.91353 -3.1629
LeftLeg  7.18677 19.4747 -4.19133
LeftFoot  -1.64877 -0.154727 1.9392
LeftToes  -2.09216e-011 1.96776e-011 -5.83545e-012
243
root  69.5438 39.8889 -1.51908 -78.1327 -84.7577 76.2204
RightUpLeg  -4.50226 -14.3736 -19.1549
RightLeg  5.66578 1.38572 1.19106
RightFoot  4.96618 -1.29786 9.2777
RightToes  -1.16417e-010 0 -3.6325e-017
Spine  16.0738 -1.05322 -0.844549
Spine1  6.17367 -0.731453 -2.10183
HEad  -21.7073 7.6914 -3.53188
LeftShoulder1  9.29051 -15.4539 -42.5818
LeftArm  -23.2626 -31.8785 -17.8902
LeftForeArm  43.8065 -61.5949 -16.6207
LeftHand  -0.244104 0.0205437 5.32207
RightShoulder  5.85756 11.1132 34.12
RightArm  -10.8244 27.9673 35.0818
RightForeArm  18.0331 70.514 32.6967
RightHand  -4.42412 10.433 -31.9375
LeftUpLeg  -4.69745 4.47878 -2.87918
LeftLeg  7.93797 18.697 -3.86349
LeftFoot  -1.70981 -0.161423 2.02008
LeftToes  -2.09216e-011 1.96776e-011 -5.83545e-012
244
root  69.5733 39.8863 -1.54665 -72.2184 -84.8304 70.2568
RightUpLeg  -4.20467 -14.3998 -19.0608
RightLeg  5.53284 0.928992 1.34461
RightFoot  4.97296 -1.29002 9.21967
RightToes  -1.16417e-010 0 -3.6325e-017
Spine  16.2639 -0.917841 -0.39828
Spine1  5.49259 -0.46576 -2.38085
HEad  -22.3789 7.54608 -2.6903
LeftShoulder1  9.02226 -15.5063 -41.1381
LeftArm  -25.0365 -35.8598 -18.0086
LeftForeArm  47.3184 -66.3522 -20.7859
LeftHand  -0.244104 0.0205437 5.32207
RightShoulder  5.46613 10.9024 31.9986
RightArm  -13.3883 33.4001 34.0236
RightForeArm  28.5133 74.2184 42.1114
RightHand  -3.62565 8.38156 -30.1816
LeftUpLeg  -5.02352 5.18271 -2.75675
LeftLeg  8.547 17.584 -3.5572
LeftFoot  -1.73263 -0.171346 2.15114
LeftToes  -2.09216e-011 1.96776e-011 -5.83545e-012
245
root  69.5906 39.883 -1.58332 -64.3276 -84.6937 62.2108
RightUpLeg  -3.82322 -14.4873 -19.0561
RightLeg  5.64757 0.396626 1.45383
RightFoot  4.84013 -1.2645 9.11113
RightToes  -1.16417e-010 0 -3.6325e-017
Spine  16.3789 -0.72364 -0.101105
Spine1  4.62385 -0.216871 -2.44144
HEad  -22.4281 6.66984 -1.95826
LeftShoulder1  8.74857 -15.5073 -39.7755
LeftArm  -26.1655 -40.6271 -18.5107
LeftForeArm  48.9639 -68.2694 -23.0939
LeftHand  -0.244104 0.0205437 5.32207
RightShoulder  5.16427 11.0387 29.5419
RightArm  -17.0235 38.6983 32.3097
RightForeArm  34.4335 75.7011 47.9982
RightHand  -2.96827 6.43316 -28.8686
LeftUpLeg  -5.14029 5.8544 -2.68067
LeftLeg  8.96681 16.2568 -3.36549
LeftFoot  -1.69577 -0.18272 2.30754
LeftToes  -2.09216e-011 1.96776e-011 -5.83545e-012
246
root  69.6014 39.8806 -1.6436 -54.8123 -84.3475 52.5233
RightUpLeg  -3.43697 -14.5658 -18.9892
RightLeg  5.97195 -0.338874 1.50323
RightFoot  4.56282 -1.22123 8.94961
RightToes  -1.16417e-010 0 -3.6325e-017
Spine  16.5268 -0.670302 0.0445842
Spine1  3.46039 -0.175659 -2.38087
HEad  -21.9983 5.54389 -1.44085
LeftShoulder1  8.41939 -15.4115 -38.3389
LeftArm  -26.5287 -45.4588 -19.2971
LeftForeArm  47.667 -68.0242 -22.9704
LeftHand  -0.244104 0.0205437 5.32207
RightShoulder  4.92413 11.3809 27.0383
RightArm  -20.8893 43.774 30.6772
RightForeArm  31.3389 75.1703 46.0861
RightHand  -2.5771 5.04551 -28.397
LeftUpLeg  -5.20818 6.42509 -2.51853
LeftLeg  9.30052 14.7814 -3.26708
LeftFoot  -1.63582 -0.18688 2.35726
LeftToes  -2.09216e-011 1.96776e-011 -5.83545e-012
247
root  69.6074 39.8814 -1.73999 -44.4542 -83.6923 42.045
RightUpLeg  -3.06825 -14.6802 -18.8381
RightLeg  6.44031 -1.33077 1.53973
RightFoot  4.16042 -1.15464 8.67682
RightToes  -1.16417e-010 0 -3.6325e-017
Spine  16.5421 -0.69702 0.219668
Spine1  2.46119 -0.179424 -2.4715
HEad  -21.4787 4.22133 -0.831582
LeftShoulder1  8.11823 -15.4722 -36.6707
LeftArm  -26.0375 -50.3045 -20.6677
LeftForeArm  44.1686 -65.9558 -20.8401
LeftHand  -0.244104 0.0205437 5.32207
RightShoulder  4.59095 11.3659 24.731
RightArm  -24.6317 48.6512 29.3107
RightForeArm  21.1672 72.6015 38.0513
RightHand  -2.04616 3.24428 -27.2141
LeftUpLeg  -5.32499 6.90409 -2.24276
LeftLeg  9.5739 13.12 -3.26345
LeftFoot  -1.56018 -0.17878 2.22457
LeftToes  -2.09216e-011 1.96776e-011 -5.83545e-012
248
root  69.6063 39.8857 -1.87928 -34.9775 -82.679 32.4753
RightUpLeg  -2.67185 -14.911 -18.6511
RightLeg  7.01238 -2.46933 1.5988
RightFoot  3.60708 -1.07864 8.39579
RightToes  -1.16417e-010 0 -3.6325e-017
Spine  16.3699 -0.656983 0.35587
Spine1  1.87953 -0.11837 -2.5261
HEad  -21.071 2.81929 -0.0903798
LeftShoulder1  7.89564 -15.7285 -34.9806
LeftArm  -24.6412 -55.2674 -22.8797
LeftForeArm  39.4132 -62.2898 -17.7178
LeftHand  -0.244104 0.0205437 5.32207
RightShoulder  4.08437 10.7303 22.4343
RightArm  -27.8564 53.2458 28.5138
RightForeArm  9.67072 68.0781 29.1042
RightHand  -1.38354 1.01747 -24.9115
LeftUpLeg  -5.46203 7.31176 -1.88635
LeftLeg  9.77803 11.2607 -3.33001
LeftFoot  -1.4331 -0.163523 1.99163
LeftToes  -2.09216e-011 1.96776e-011 -5.83545e-012
249
root  69.5926 39.8911 -2.06303 -27.9471 -81.5056 25.3173
RightUpLeg  -2.23535 -15.2679 -18.4227
RightLeg  7.65099 -3.46406 1.6426
RightFoot  2.80809 -1.01772 8.34269
RightToes  -1.16417e-010 0 -3.6325e-017
Spine  16.1257 -0.577284 0.320855
Spine1  1.51307 -0.0665213 -2.43516
HEad  -20.6157 1.72977 0.577833
LeftShoulder1  7.72057 -16.057 -33.4122
LeftArm  -22.7581 -59.4828 -25.7689
LeftForeArm  34.7611 -58.4439 -15.2085
LeftHand  -0.244104 0.0205437 5.32207
RightShoulder  3.60442 9.96476 20.3911
RightArm  -29.9467 57.19 28.7734
RightForeArm  1.77432 63.0438 22.8479
RightHand  -1.16792 0.321487 -23.6199
LeftUpLeg  -5.56515 7.58265 -1.48709
LeftLeg  9.96077 9.46898 -3.34865
LeftFoot  -1.26399 -0.14654 1.747
LeftToes  -2.09216e-011 1.96776e-011 -5.83545e-012
